<svg width="44" height="44" viewBox="0 0 44 44" fill="none" xmlns="http://www.w3.org/2000/svg">
<g clip-path="url(#clip0_267_43)">
<path d="M18.3338 38.0912C16.7381 37.7293 15.2055 37.1304 13.7871 36.3147" stroke="black" stroke-width="2.75" stroke-linecap="round" stroke-linejoin="round"/>
<path d="M25.666 5.90881C29.311 6.74128 32.5653 8.78658 34.8962 11.7099C37.2271 14.6331 38.4965 18.2612 38.4965 22C38.4965 25.7388 37.2271 29.3668 34.8962 32.2901C32.5653 35.2134 29.311 37.2587 25.666 38.0911" stroke="black" stroke-width="2.75" stroke-linecap="round" stroke-linejoin="round"/>
<path d="M8.39403 31.3372C7.39396 29.8842 6.6344 28.2797 6.14453 26.5852" stroke="black" stroke-width="2.75" stroke-linecap="round" stroke-linejoin="round"/>
<path d="M5.72656 19.25C6.0199 17.5083 6.58456 15.8583 7.37656 14.3458L7.6864 13.7866" stroke="black" stroke-width="2.75" stroke-linecap="round" stroke-linejoin="round"/>
<path d="M12.6621 8.39481C14.3775 7.21396 16.3019 6.37029 18.3326 5.90881" stroke="black" stroke-width="2.75" stroke-linecap="round" stroke-linejoin="round"/>
<path d="M22 14.6666V22L27.5 27.5" stroke="black" stroke-width="2.75" stroke-linecap="round" stroke-linejoin="round"/>
</g>
<defs>
<clipPath id="clip0_267_43">
<rect width="44" height="44" fill="white"/>
</clipPath>
</defs>
</svg>
